<?xml version="1.0" encoding="iso-8859-1"?>
<!-- Generator: Adobe Illustrator 19.0.0, SVG Export Plug-In . SVG Version: 6.00 Build 0)  -->
<svg version="1.1" id="Layer_1" xmlns="http://www.w3.org/2000/svg" xmlns:xlink="http://www.w3.org/1999/xlink" x="0px" y="0px"
	 viewBox="0 0 512 512" style="enable-background:new 0 0 512 512;" xml:space="preserve">
<g>
	<polygon style="fill:#AF8066;" points="143.186,503.322 368.814,503.322 368.814,329.763 143.186,329.763 	"/>
	<g>
		<polygon style="fill:#D9AA94;" points="368.814,407.864 308.068,468.61 256,416.542 203.932,468.61 143.186,407.864 
			143.186,355.797 203.932,416.542 256,364.475 308.068,416.542 368.814,355.797 		"/>
		<polygon style="fill:#D9AA94;" points="134.508,329.763 377.492,329.763 377.492,295.051 134.508,295.051 		"/>
	</g>
	<path style="fill:#F0EDE0;" d="M412.203,512H99.797c-4.79,0-8.678-3.888-8.678-8.678s3.888-8.678,8.678-8.678h312.407
		c4.79,0,8.678,3.888,8.678,8.678S416.994,512,412.203,512"/>
	<g>
		<path style="fill:#91CF96;" d="M143.186,295.051c0-121.856-130.169,8.678-130.169,8.678c0-50.619,28.203-130.169,112.814-130.169
			c2.352,0.903,69.424-11.229,69.424,121.492H143.186z"/>
		<path style="fill:#91CF96;" d="M368.814,295.051c0-121.856,130.169,8.678,130.169,8.678c0-50.619-28.203-130.169-112.814-130.169
			c-2.352,0.903-69.424-11.229-69.424,121.492H368.814z"/>
	</g>
	<path style="fill:#5ABA63;" d="M247.322,295.051c0-228.899,76.748-261.693,182.237-216.949c0,0-112.814,32.273-112.814,216.949
		H247.322z"/>
	<path style="fill:#91CF96;" d="M247.322,295.051c0-105.186,16.236-168.873,43.989-202.743C284.472,30.642,223.336,0,177.898,0
		c16.644,16.644,41.845,42.617,43.251,131.159C237.256,165.767,247.556,217.938,247.322,295.051"/>
	<path style="fill:#5ABA63;" d="M39.051,104.136c54.645,0,97.462,36.734,124.347,82.441c16.358,14.397,31.857,44.674,31.857,108.475
		h52.068C248.363-48.918,40.222,102.174,39.051,104.136"/>
</g>
<g>
</g>
<g>
</g>
<g>
</g>
<g>
</g>
<g>
</g>
<g>
</g>
<g>
</g>
<g>
</g>
<g>
</g>
<g>
</g>
<g>
</g>
<g>
</g>
<g>
</g>
<g>
</g>
<g>
</g>
</svg>
