<?xml version="1.0" encoding="iso-8859-1"?>
<!-- Generator: Adobe Illustrator 19.0.0, SVG Export Plug-In . SVG Version: 6.00 Build 0)  -->
<svg version="1.1" id="Layer_1" xmlns="http://www.w3.org/2000/svg" xmlns:xlink="http://www.w3.org/1999/xlink" x="0px" y="0px"
	 viewBox="0 0 512.449 512.449" style="enable-background:new 0 0 512.449 512.449;" xml:space="preserve">
<g transform="translate(0 -1)">
	<g>
		<path style="fill:#F4C44E;" d="M256.2,308.649c-2.022,0-4.053-0.708-5.675-2.159c-3.516-3.14-3.831-8.525-0.7-12.049
			c21.214-23.834,39.962-90.709,0.128-133.581c-0.239-0.256-0.452-0.512-0.657-0.785c-22.349-25.455-48.99-109.628,1.143-156.331
			c3.447-3.209,8.858-3.029,12.058,0.418c3.217,3.447,3.029,8.849-0.427,12.058c-23.159,21.589-24.815,52.079-22.118,73.865
			c3.209,25.95,14.037,49.869,22.596,59.196c0.188,0.205,0.367,0.427,0.538,0.649c46.609,51.046,24.9,127.317-0.512,155.861
			C260.893,307.685,258.546,308.649,256.2,308.649"/>
		<path style="fill:#F4C44E;" d="M282.008,223.499c-1.69,0-3.388-0.503-4.873-1.536l-28.041-19.584
			c-3.874-2.697-4.813-8.013-2.116-11.878c2.705-3.866,8.021-4.813,11.878-2.108l21.385,14.925l17.203-22.238
			c2.884-3.729,8.235-4.403,11.972-1.527c3.721,2.884,4.412,8.243,1.527,11.972l-22.178,28.663
			C287.094,222.356,284.568,223.499,282.008,223.499"/>
		<path style="fill:#F4C44E;" d="M256.266,163.582c-0.597,0-1.203-0.06-1.809-0.188l-35.388-7.637
			c-4.608-0.99-7.535-5.53-6.545-10.138c0.99-4.608,5.547-7.518,10.138-6.545l27.051,5.837l5.837-27.051
			c0.998-4.608,5.555-7.526,10.138-6.545c4.617,0.998,7.535,5.53,6.545,10.138l-7.629,35.396
			C263.733,160.852,260.2,163.582,256.266,163.582"/>
		<path style="fill:#F4C44E;" d="M232.066,103.874c-2.278,0-4.446-0.905-6.059-2.517l-25.438-25.626
			c-3.319-3.345-3.302-8.747,0.043-12.066c3.328-3.328,8.73-3.311,12.075,0.034l19.217,19.371l18.091-19.2
			c3.226-3.439,8.627-3.593,12.058-0.367c3.43,3.234,3.593,8.636,0.358,12.066l-24.132,25.626c-1.587,1.681-3.789,2.645-6.093,2.679
			H232.066z"/>
		<path style="fill:#F4C44E;" d="M235.157,52.649c-1.374,0-2.731-0.333-3.977-0.981c-1.997-1.058-3.499-2.859-4.173-5.026
			l-10.735-34.577c-1.399-4.497,1.118-9.284,5.615-10.675c4.523-1.408,9.293,1.126,10.684,5.615l8.201,26.436l26.428-8.209
			c4.523-1.399,9.293,1.126,10.684,5.623c1.399,4.497-1.118,9.284-5.615,10.675l-34.577,10.735
			C236.856,52.521,236.011,52.649,235.157,52.649"/>
		<path style="fill:#F4C44E;" d="M271.383,283.249c-0.956,0-1.92-0.162-2.842-0.486c-2.133-0.759-3.883-2.33-4.855-4.369
			l-15.616-32.657c-2.039-4.258-0.239-9.353,4.011-11.383c4.258-2.039,9.344-0.239,11.383,4.019l11.938,24.969l24.96-11.947
			c4.267-2.039,9.335-0.239,11.375,4.019c2.039,4.25,0.239,9.344-4.011,11.383l-32.657,15.616
			C273.909,282.967,272.638,283.249,271.383,283.249"/>
	</g>
	<g>
		<path style="fill:#F9D70B;" d="M350.066,308.649c-2.022,0-4.053-0.708-5.675-2.159c-3.516-3.14-3.831-8.525-0.7-12.049
			c21.214-23.834,39.962-90.709,0.128-133.581c-0.239-0.256-0.452-0.512-0.657-0.785c-22.349-25.455-48.99-109.628,1.143-156.331
			c3.447-3.209,8.858-3.029,12.058,0.418c3.217,3.447,3.029,8.849-0.427,12.058c-23.159,21.589-24.815,52.079-22.118,73.865
			c3.209,25.95,14.037,49.869,22.596,59.196c0.188,0.205,0.367,0.427,0.538,0.649c46.609,51.046,24.9,127.317-0.512,155.861
			C354.76,307.685,352.413,308.649,350.066,308.649"/>
		<path style="fill:#F9D70B;" d="M375.875,223.499c-1.69,0-3.388-0.503-4.873-1.536l-28.041-19.584
			c-3.874-2.697-4.813-8.013-2.116-11.878c2.705-3.866,8.013-4.813,11.878-2.108l21.385,14.925l17.203-22.238
			c2.884-3.729,8.235-4.403,11.972-1.527c3.721,2.884,4.412,8.243,1.527,11.972l-22.178,28.663
			C380.961,222.356,378.435,223.499,375.875,223.499"/>
		<path style="fill:#F9D70B;" d="M350.133,163.582c-0.597,0-1.203-0.06-1.809-0.188l-35.388-7.637
			c-4.608-0.99-7.535-5.53-6.545-10.138c0.99-4.608,5.555-7.518,10.138-6.545l27.051,5.837l5.837-27.051
			c0.998-4.608,5.564-7.526,10.138-6.545c4.617,0.998,7.535,5.53,6.545,10.138l-7.629,35.396
			C357.6,160.852,354.067,163.582,350.133,163.582"/>
		<path style="fill:#F9D70B;" d="M325.932,103.874c-2.278,0-4.446-0.905-6.059-2.517l-25.438-25.626
			c-3.319-3.345-3.302-8.747,0.043-12.066c3.328-3.328,8.73-3.311,12.075,0.034L325.77,83.07l18.091-19.2
			c3.226-3.439,8.627-3.593,12.058-0.367c3.43,3.234,3.593,8.636,0.358,12.066l-24.132,25.626c-1.587,1.681-3.789,2.645-6.093,2.679
			H325.932z"/>
		<path style="fill:#F9D70B;" d="M329.024,52.649c-1.374,0-2.731-0.333-3.977-0.981c-1.997-1.058-3.499-2.859-4.173-5.026
			L310.14,12.065c-1.399-4.497,1.118-9.284,5.615-10.675c4.523-1.408,9.293,1.126,10.684,5.615l8.201,26.436l26.428-8.209
			c4.514-1.399,9.293,1.126,10.684,5.623c1.399,4.497-1.118,9.284-5.615,10.675l-34.577,10.735
			C330.722,52.521,329.877,52.649,329.024,52.649"/>
		<path style="fill:#F9D70B;" d="M365.25,283.249c-0.956,0-1.92-0.162-2.842-0.486c-2.133-0.759-3.883-2.33-4.855-4.369
			l-15.616-32.657c-2.039-4.258-0.239-9.353,4.011-11.383c4.258-2.039,9.353-0.239,11.383,4.019l11.938,24.969l24.96-11.947
			c4.258-2.039,9.335-0.239,11.375,4.019c2.039,4.25,0.239,9.344-4.011,11.383l-32.657,15.616
			C367.776,282.967,366.504,283.249,365.25,283.249"/>
		<path style="fill:#F9D70B;" d="M162.333,308.649c-2.022,0-4.053-0.708-5.675-2.159c-3.516-3.14-3.831-8.525-0.7-12.049
			c21.214-23.834,39.962-90.709,0.128-133.581c-0.239-0.256-0.452-0.512-0.657-0.785c-22.349-25.455-48.99-109.628,1.143-156.331
			c3.447-3.209,8.858-3.029,12.058,0.418c3.217,3.447,3.029,8.849-0.427,12.058c-23.159,21.589-24.815,52.079-22.118,73.865
			c3.209,25.95,14.037,49.869,22.596,59.196c0.188,0.205,0.367,0.427,0.538,0.649c46.609,51.046,24.9,127.317-0.512,155.861
			C167.026,307.685,164.68,308.649,162.333,308.649"/>
		<path style="fill:#F9D70B;" d="M188.141,223.499c-1.69,0-3.388-0.503-4.873-1.536l-28.041-19.584
			c-3.874-2.697-4.813-8.013-2.116-11.878s8.021-4.813,11.878-2.108l21.385,14.925l17.203-22.238
			c2.884-3.729,8.243-4.403,11.972-1.527c3.721,2.884,4.412,8.243,1.527,11.972L194.9,220.188
			C193.227,222.356,190.701,223.499,188.141,223.499"/>
		<path style="fill:#F9D70B;" d="M162.4,163.582c-0.597,0-1.203-0.06-1.809-0.188l-35.388-7.637
			c-4.608-0.99-7.535-5.53-6.545-10.138c0.99-4.608,5.564-7.518,10.138-6.545l27.051,5.837l5.837-27.051
			c0.998-4.608,5.547-7.526,10.138-6.545c4.617,0.998,7.535,5.53,6.545,10.138l-7.629,35.396
			C169.866,160.852,166.334,163.582,162.4,163.582"/>
		<path style="fill:#F9D70B;" d="M138.199,103.874c-2.278,0-4.446-0.905-6.059-2.517l-25.438-25.626
			c-3.319-3.345-3.302-8.747,0.043-12.066c3.328-3.328,8.73-3.311,12.075,0.034l19.217,19.371l18.091-19.2
			c3.226-3.439,8.619-3.593,12.058-0.367c3.43,3.234,3.593,8.636,0.358,12.066l-24.132,25.626c-1.587,1.681-3.789,2.645-6.093,2.679
			H138.199z"/>
		<path style="fill:#F9D70B;" d="M141.291,52.649c-1.374,0-2.731-0.333-3.977-0.981c-1.997-1.058-3.499-2.859-4.173-5.026
			l-10.735-34.577c-1.399-4.497,1.118-9.284,5.615-10.675c4.531-1.408,9.293,1.126,10.684,5.615l8.201,26.436l26.428-8.209
			c4.523-1.399,9.293,1.126,10.684,5.623c1.399,4.497-1.118,9.284-5.615,10.675l-34.577,10.735
			C142.989,52.521,142.144,52.649,141.291,52.649"/>
		<path style="fill:#F9D70B;" d="M177.516,283.249c-0.956,0-1.92-0.162-2.842-0.486c-2.133-0.759-3.883-2.33-4.855-4.369
			l-15.616-32.657c-2.039-4.258-0.239-9.353,4.011-11.383c4.258-2.039,9.344-0.239,11.383,4.019l11.938,24.969l24.96-11.947
			c4.267-2.039,9.344-0.239,11.375,4.019c2.039,4.25,0.239,9.344-4.011,11.383l-32.657,15.616
			C180.042,282.967,178.771,283.249,177.516,283.249"/>
	</g>
	<polygon style="fill:#AF8066;" points="145.291,504.916 367.158,504.916 367.158,334.249 145.291,334.249 	"/>
	<g>
		<polygon style="fill:#D9AA94;" points="367.158,411.049 307.425,470.782 256.225,419.582 205.025,470.782 145.291,411.049 
			145.291,359.849 205.025,419.582 256.225,368.382 307.425,419.582 367.158,359.849 		"/>
		<polygon style="fill:#D9AA94;" points="136.758,334.249 375.691,334.249 375.691,300.116 136.758,300.116 		"/>
	</g>
	<path style="fill:#F0EDE0;" d="M409.825,513.449h-307.2c-4.71,0-8.533-3.823-8.533-8.533s3.823-8.533,8.533-8.533h307.2
		c4.719,0,8.533,3.823,8.533,8.533S414.543,513.449,409.825,513.449"/>
</g>
<g>
</g>
<g>
</g>
<g>
</g>
<g>
</g>
<g>
</g>
<g>
</g>
<g>
</g>
<g>
</g>
<g>
</g>
<g>
</g>
<g>
</g>
<g>
</g>
<g>
</g>
<g>
</g>
<g>
</g>
</svg>
