<?xml version="1.0" encoding="iso-8859-1"?>
<!-- Generator: Adobe Illustrator 19.0.0, SVG Export Plug-In . SVG Version: 6.00 Build 0)  -->
<svg version="1.1" id="Layer_1" xmlns="http://www.w3.org/2000/svg" xmlns:xlink="http://www.w3.org/1999/xlink" x="0px" y="0px"
	 viewBox="0 0 510.321 510.321" style="enable-background:new 0 0 510.321 510.321;" xml:space="preserve">
<g>
	<path style="fill:#AF6D2D;" d="M361.014,464.243l-43.802-107.068c-11.725-28.663-39.62-47.386-70.588-47.386
		s-58.854,20.855-70.579,49.519L118.624,501.79h230.4v-21.333C349.024,472.811,354.085,466.419,361.014,464.243"/>
	<g>
		<path style="fill:#864D18;" d="M221.027,501.787h-34.133v-21.333c0-9.429,7.637-17.067,17.067-17.067l0,0
			c9.429,0,17.067,7.637,17.067,17.067V501.787z"/>
		<path style="fill:#864D18;" d="M58.894,501.787h-51.2v-29.867c0-14.14,11.46-25.6,25.6-25.6l0,0c14.14,0,25.6,11.46,25.6,25.6
			V501.787z"/>
		<path style="fill:#864D18;" d="M383.16,501.787h-34.133v-21.333c0-9.429,7.637-17.067,17.067-17.067l0,0
			c9.429,0,17.067,7.637,17.067,17.067V501.787z"/>
		<path style="fill:#864D18;" d="M459.96,501.787h-34.133v-21.333c0-9.429,7.637-17.067,17.067-17.067l0,0
			c9.429,0,17.067,7.637,17.067,17.067V501.787z"/>
	</g>
	<path style="fill:#5ABA63;" d="M494.094,510.321H93.027c-4.71,0-8.533-3.823-8.533-8.533s3.823-8.533,8.533-8.533h401.067
		c4.71,0,8.533,3.823,8.533,8.533S498.804,510.321,494.094,510.321"/>
	<g>
		<path style="fill:#91CF96;" d="M251.414,233.146c-1.681,0-3.379-0.034-5.077-0.119l-7.765-0.358l-0.358-7.765
			c-1.331-28.706,8.636-55.219,28.075-74.658c19.439-19.43,45.926-29.44,74.65-28.075l7.765,0.367l0.367,7.765
			c1.331,28.706-8.644,55.211-28.075,74.65C302.708,223.239,278.158,233.146,251.414,233.146"/>
		<path style="fill:#91CF96;" d="M250.836,158.558l-7.595-3.285c-26.991-11.665-48.478-34.244-58.974-61.943
			c-10.607-28.023-9.387-58.505,3.439-85.837L191.222,0l7.595,3.285c26.982,11.665,48.478,34.244,58.965,61.943
			c10.615,28.023,9.395,58.505-3.43,85.837L250.836,158.558z"/>
		<path style="fill:#91CF96;" d="M246.519,275.704h0.085H246.519z M241.842,284.349c-26.752,0-51.294-9.907-69.581-28.194
			c-19.43-19.439-29.406-45.952-28.075-74.658l0.358-7.765l7.765-0.358c28.74-1.34,55.219,8.636,74.658,28.075
			s29.406,45.952,28.075,74.65l-0.358,7.774l-7.774,0.358C245.213,284.306,243.523,284.349,241.842,284.349L241.842,284.349z"/>
	</g>
	<path style="fill:#AF6D2D;" d="M33.294,476.187c-4.71,0-8.533,3.823-8.533,8.533v17.067h17.067v-17.067
		C41.827,480.01,38.004,476.187,33.294,476.187"/>
	<g>
		<path style="fill:#5ABA63;" d="M246.627,356.721c-4.71,0-8.533-3.823-8.533-8.533v-204.8c0-4.71,3.823-8.533,8.533-8.533
			s8.533,3.823,8.533,8.533v204.8C255.16,352.898,251.337,356.721,246.627,356.721"/>
		<path style="fill:#5ABA63;" d="M246.627,233.146c-2.185,0-4.369-0.836-6.033-2.5c-3.337-3.337-3.337-8.73,0-12.066l51.277-51.277
			c3.337-3.337,8.738-3.337,12.066,0c3.337,3.328,3.337,8.73,0,12.066l-51.277,51.277
			C250.996,232.31,248.812,233.146,246.627,233.146"/>
		<path style="fill:#5ABA63;" d="M246.627,155.979c-3.533,0-6.835-2.21-8.064-5.743l-26.667-76.885
			c-1.545-4.454,0.811-9.31,5.265-10.863c4.446-1.553,9.31,0.811,10.863,5.274l26.667,76.885c1.545,4.454-0.811,9.31-5.265,10.854
			C248.496,155.826,247.557,155.979,246.627,155.979"/>
		<path style="fill:#5ABA63;" d="M246.627,284.346c-2.185,0-4.369-0.836-6.033-2.5l-51.2-51.2c-3.337-3.337-3.337-8.73,0-12.066
			c3.337-3.337,8.73-3.337,12.066,0l51.2,51.2c3.337,3.337,3.337,8.73,0,12.066C250.996,283.51,248.812,284.346,246.627,284.346"/>
	</g>
</g>
<g>
</g>
<g>
</g>
<g>
</g>
<g>
</g>
<g>
</g>
<g>
</g>
<g>
</g>
<g>
</g>
<g>
</g>
<g>
</g>
<g>
</g>
<g>
</g>
<g>
</g>
<g>
</g>
<g>
</g>
</svg>
